<svg xmlns="http://www.w3.org/2000/svg" 
    xmlns:xlink="http://www.w3.org/1999/xlink"
    xmlns:krita="http://krita.org/namespaces/svg/krita"
    xmlns:sodipodi="http://sodipodi.sourceforge.net/DTD/sodipodi-0.dtd"
    width="30.72pt"
    height="30.72pt"
    viewBox="15 4 24 24">
<defs/>
<ellipse id="shape0" transform="translate(15.36, 4.56)" rx="10.62" ry="10.62" cx="10.62" cy="10.62" fill="#000000" fill-rule="evenodd"/><path id="shape1" transform="translate(20.3532208871558, 6.96437814542642)" fill="#8ce309" fill-rule="evenodd" d="M3.66988 8.27562L0.0212132 2.07973C1.393 0.722081 3.21026 0.0291162 5.47301 0.00083189C7.73575 -0.0274524 9.59544 0.665512 11.0521 2.07973L7.36098 8.27562L11.0733 14.2561C9.76026 15.6703 7.96476 16.3774 5.68678 16.3774C3.4088 16.3774 1.51321 15.6632 0 14.2349C0 14.2349 1.22329 12.2485 3.66988 8.27562Z"/><path id="shape2" transform="translate(27.7500011890409, 9.24000065198727)" fill="none" stroke="#8ce309" stroke-width="0.3396" stroke-linecap="square" stroke-linejoin="miter" stroke-miterlimit="2" d="M0 6L3.57 0"/><path id="shape3" transform="translate(27.8025012364515, 15.4650011254254)" fill="none" stroke="#8ce309" stroke-width="0.3396" stroke-linecap="square" stroke-linejoin="miter" stroke-miterlimit="2" d="M0 0L3.5025 5.535"/><path id="shape4" transform="translate(27.3525009398767, 15.0900008574314)" fill="none" stroke="#8ce309" stroke-width="0.3396" stroke-linecap="square" stroke-linejoin="miter" stroke-miterlimit="2" d="M0.75 1.0725L0 0"/><path id="shape5" transform="translate(27.6150009546746, 15.0900008574314)" fill="none" stroke="#8ce309" stroke-width="0.3396" stroke-linecap="square" stroke-linejoin="miter" stroke-miterlimit="2" d="M0.51 0.915L0 0"/>
</svg>
