<svg width="43" height="43" viewBox="0 0 43 43" fill="none" xmlns="http://www.w3.org/2000/svg">
<circle cx="21.5" cy="21.5" r="20.5" fill="#ffffff"/>
<path d="M10.1009 29V14.4545H20.2429V17.3097H13.6165V20.2926H19.7244V23.1548H13.6165V26.1449H20.2429V29H10.1009ZM22.4446 29V14.4545H28.4531C29.5421 14.4545 30.482 14.651 31.2727 15.044C32.0682 15.4323 32.6813 15.991 33.1122 16.7202C33.5431 17.4446 33.7585 18.304 33.7585 19.2983C33.7585 20.3068 33.5384 21.1638 33.098 21.8693C32.6577 22.5701 32.0327 23.1051 31.223 23.4744C30.4134 23.839 29.4545 24.0213 28.3466 24.0213H24.5469V21.2514H27.6932C28.2235 21.2514 28.6662 21.1828 29.0213 21.0455C29.3812 20.9034 29.6534 20.6903 29.8381 20.4062C30.0227 20.1174 30.1151 19.7481 30.1151 19.2983C30.1151 18.8485 30.0227 18.4768 29.8381 18.1832C29.6534 17.8849 29.3812 17.6624 29.0213 17.5156C28.6615 17.3641 28.2188 17.2884 27.6932 17.2884H25.9602V29H22.4446ZM30.6335 22.3523L34.2557 29H30.4205L26.8693 22.3523H30.6335Z" fill="#1F2937"/>
</svg>
